<svg width="138" height="40" viewBox="0 0 138 40" fill="none" xmlns="http://www.w3.org/2000/svg">
<g clip-path="url(#clip0_6427_54)">
<path d="M55.3266 20.2818C54.8046 20.069 54.0836 21.0204 53.7232 21.3334C52.9525 21.997 52.1694 22.648 51.349 23.2364C50.7253 23.76 49.9957 24.1403 49.211 24.3507C48.2539 24.4884 48.5273 23.7873 48.49 23.0987C48.4527 22.4101 47.508 21.6965 46.899 21.4461C46.2899 21.1957 45.743 22.1222 45.3701 22.6981C45.1463 23.0236 44.3135 24.5134 43.8536 24.3381C43.3937 24.1628 43.3688 22.7356 43.3564 22.3225C43.3057 21.9563 43.3553 21.5832 43.4999 21.2433C43.6445 20.9035 43.8785 20.61 44.1768 20.3945C44.5112 20.2419 44.8725 20.1578 45.2395 20.1471C45.6065 20.1363 45.972 20.1991 46.3147 20.3318C46.6628 20.432 48.0798 21.1581 47.8312 20.3318C47.6323 19.6808 46.5137 19.4305 45.9543 19.2552C45.113 18.9791 44.2267 18.8686 43.3439 18.9297C43.0115 18.9477 42.686 19.0329 42.3868 19.1801C41.9269 19.3929 41.7777 19.7559 41.4297 20.0564C41.0816 20.3569 41.5043 20.0564 41.2308 20.1816C40.9573 20.3068 40.9946 20.119 40.8455 20.1816C40.6963 20.2442 40.4974 20.5572 40.3731 20.7075C39.8138 21.4211 39.2544 22.1347 38.6329 22.7982C38.0655 23.4578 37.3883 24.0128 36.6317 24.4383C36.0474 24.7387 35.0903 25.1644 34.5185 24.6386C33.7354 23.9124 33.6608 22.1347 33.5117 21.2082C33.4088 20.7981 33.3464 20.3788 33.3252 19.9563C33.4784 19.3709 33.7216 18.8132 34.0462 18.3037C34.7067 16.5674 35.0642 14.7292 35.1027 12.8702C35.2121 11.0876 35.0571 9.29852 34.6428 7.56192C34.3196 6.24736 33.7105 4.31933 32.0698 4.33185C30.429 4.34437 30.0934 6.39757 29.9939 7.64952C29.9383 9.44099 30.0381 11.2339 30.2922 13.0079C30.4911 15.0611 30.6527 17.1143 30.9013 19.1675C31.0132 20.1941 31.1624 21.2207 31.3364 22.2473C31.433 23.1158 31.6724 23.962 32.0449 24.7513C33.002 26.504 35.0903 26.4164 36.6938 25.6527C38.4066 24.7471 39.8939 23.4631 41.0444 21.8968C41.0444 23.1488 41.3427 25.6527 42.8343 26.1284C44.587 26.6918 45.6808 24.1378 46.6628 23.1613C46.5717 23.667 46.6521 24.1889 46.8911 24.643C47.1301 25.0972 47.5137 25.4572 47.9804 25.6652C48.5742 25.7831 49.1867 25.7668 49.7735 25.6174C50.3604 25.468 50.9069 25.1893 51.3738 24.8013C52.4894 24.1029 53.5418 23.307 54.5187 22.4226C54.9786 22.0345 56.6194 20.8702 55.3266 20.3569C55.1899 20.2192 55.4758 20.382 55.3266 20.2818ZM33.0393 17.3772C32.9399 16.3757 32.828 15.3616 32.7286 14.3475C32.3545 11.9829 32.1592 9.59318 32.1443 7.19884C32.1443 6.78569 32.1443 6.10964 32.5048 5.83421C32.8653 5.55878 33.2506 5.8968 33.4122 6.29743C33.7947 7.35662 33.9882 8.47556 33.984 9.60261C34.2152 12.2322 33.8933 14.8814 33.0393 17.3772Z" fill="#D3A562"/>
<path d="M17.2033 20.0938C17.1437 20.063 17.0776 20.047 17.0106 20.047C16.9436 20.047 16.8776 20.063 16.818 20.0938C16.5978 20.2437 16.39 20.4112 16.1965 20.5946C15.923 20.845 15.5998 21.1204 15.2269 21.4334C14.854 21.7464 14.4686 22.0719 14.046 22.4099C13.6234 22.748 13.2132 23.0359 12.803 23.3113C12.4392 23.558 12.0569 23.7756 11.6594 23.9623C11.3851 24.0983 11.0826 24.1669 10.7769 24.1627C10.5283 24.1627 10.3791 24.0625 10.3418 23.9373C10.3096 23.7846 10.3096 23.6268 10.3418 23.4741C10.3418 23.2988 10.3418 23.1236 10.3418 22.9232C10.3506 22.8282 10.3396 22.7324 10.3097 22.6419C10.2797 22.5514 10.2314 22.4681 10.1678 22.3974C10.0278 22.2263 9.87397 22.0672 9.7079 21.9217L9.62088 21.8591C9.55953 21.7108 9.45597 21.5841 9.32325 21.495C9.19053 21.4058 9.03457 21.3583 8.87506 21.3583C8.71555 21.3583 8.55963 21.4058 8.42691 21.495C8.29418 21.5841 8.19059 21.7108 8.12924 21.8591C7.59474 22.7104 6.82407 24.0375 5.91667 24.2879C3.1323 25.0265 2.07574 21.3583 2.07574 18.7167C2.07574 17.2269 3.41821 6.52262 6.16529 9.35204C6.93596 10.1533 6.87379 13.6838 6.92351 14.8356C7.11272 16.549 6.9991 18.2826 6.58791 19.9561C6.07827 21.4209 8.00496 21.3583 8.42759 20.1689C9.4593 17.2018 9.02423 12.1189 8.2287 9.1267C7.12241 4.94517 3.85325 6.76047 2.26219 9.5273C0.173914 13.183 -1.28041 21.2456 1.61583 24.8137C3.95271 27.6807 6.7122 26.579 8.67617 24.2128C8.79706 24.5351 8.98822 24.826 9.23554 25.0641C9.58573 25.3594 10.0224 25.5309 10.4786 25.5524C10.9042 25.5902 11.3323 25.5169 11.7216 25.3395C12.2061 25.1224 12.6791 24.88 13.1386 24.6134C13.6413 24.3113 14.1269 23.9811 14.593 23.6243C15.0777 23.2487 15.5128 22.9107 15.923 22.5727C16.3332 22.2347 16.6564 21.9342 16.9298 21.6838C17.1037 21.5021 17.2952 21.3385 17.5016 21.1955C17.6158 21.083 17.6825 20.9306 17.6881 20.7699C17.6819 20.6199 17.6298 20.4756 17.5389 20.3567C17.4547 20.2382 17.3381 20.1468 17.2033 20.0938Z" fill="#D3A562"/>
<path d="M9.29765 4.28167C10.3791 2.70421 12.1193 1.18933 13.8471 1.33957C14.2697 1.33957 14.2697 1.05162 14.0584 0.713588C13.897 0.513406 13.6971 0.34811 13.4706 0.227637C13.2442 0.107164 12.996 0.033998 12.7408 0.0124953C10.6774 -0.175298 8.73829 1.37711 7.43312 3.28008C7.13479 3.65567 8.87502 4.89513 9.29765 4.28167Z" fill="#D3A562"/>
<path d="M137.838 21.0955C137.453 20.5697 137.142 20.9077 136.794 21.2332C136.446 21.5587 135.824 22.072 135.315 22.4851C134.149 23.3911 132.9 24.1834 131.586 24.8514C129.423 25.903 125.719 26.4914 125.371 23.1737C126.34 23.9625 128.366 24.7512 129.348 23.5368C130.33 22.3224 128.627 20.6323 127.633 20.119C126.919 19.742 126.1 19.6185 125.309 19.7684C124.597 19.9229 123.971 20.3435 123.556 20.9453C122.59 21.9555 121.519 22.8579 120.361 23.637C119.243 24.5008 117.701 25.8028 116.172 25.615C114.643 25.4272 114.345 23.5493 114.134 22.3725L113.985 21.3208C113.91 20.77 113.835 20.6072 114.109 20.0689C114.504 19.3886 114.833 18.6717 115.091 17.928C115.166 17.7027 115.253 16.9014 115.427 16.7637C115.601 16.626 116.545 16.7637 116.856 16.7637H119.616C119.827 16.7637 120.386 16.8514 120.56 16.7011C120.734 16.5509 120.56 16.0126 120.249 15.8623C119.6 15.6453 118.906 15.6021 118.236 15.7371C117.353 15.7371 116.483 15.7371 115.613 15.7997C115.965 13.8074 115.919 11.7643 115.476 9.79034C115.091 8.22539 114.233 6.52271 112.319 6.87326C110.902 7.13617 110.74 8.92649 110.678 10.1033C110.645 12.0583 110.761 14.0129 111.026 15.9499C110.007 15.9499 109 15.9499 107.981 15.9499C106.962 15.9499 107.546 16.8138 108.316 16.8263C108.714 16.8263 109.1 16.8263 109.485 16.8263H110.591C110.84 16.8263 110.989 16.7637 111.101 16.964C111.169 17.2254 111.198 17.4954 111.188 17.7653L111.3 18.6917L111.412 19.4805C111.511 19.7964 111.561 20.1257 111.561 20.457C111.499 20.6823 111.064 21.083 110.914 21.2583C110.525 21.6998 110.11 22.1179 109.671 22.5102C108.932 23.2585 108.096 23.9028 107.185 24.4257C105.942 25.1393 104.09 25.6777 102.797 24.7387C102.549 24.5634 101.952 24.1127 101.89 23.7747C101.828 23.4366 102.064 23.4993 102.275 23.2864C103.63 22.0345 102.835 20.4069 101.318 19.6808C99.6029 18.8545 98.0243 19.8561 96.7688 20.9327C95.9484 21.6714 95.1032 22.3725 94.2206 23.0235C93.5618 23.4867 92.5301 24.2754 91.7346 24.2754C91.2125 24.2128 91.2623 23.8623 91.2871 23.4116C91.3383 23.1828 91.3246 22.9442 91.2477 22.7228C91.1708 22.5015 91.0337 22.3064 90.8521 22.1597C90.5045 21.7878 90.0802 21.4971 89.6091 21.3083C89.1989 21.1831 89.0248 21.3709 88.7887 21.6839C88.5525 21.9969 88.1796 22.5352 87.8812 22.9359C87.5829 23.3365 87.1603 24.1878 86.7998 24.1878C86.1907 24.1878 86.1534 22.3725 86.1659 21.9468C86.1236 21.49 86.2596 21.0346 86.545 20.6771C86.8304 20.3195 87.2428 20.0879 87.6948 20.0313C88.074 19.9918 88.4572 20.0215 88.826 20.119C89.305 20.3189 89.7998 20.478 90.3051 20.5947C90.8148 20.5947 90.6905 20.1565 90.4419 19.8686C90.1137 19.5793 89.7216 19.3732 89.2983 19.2676C88.2961 18.8643 87.2188 18.6849 86.141 18.7418C85.6963 18.7875 85.2695 18.9422 84.898 19.1925C84.5945 19.4683 84.3346 19.7892 84.1273 20.144C83.5121 20.7989 82.819 21.3749 82.0639 21.8592C80.4223 23.2397 78.4871 24.2207 76.4082 24.7262C75.5784 24.9409 74.7005 24.8613 73.9222 24.5008C73.5423 24.212 73.2414 23.8307 73.0479 23.3927C72.8544 22.9548 72.7746 22.4745 72.8159 21.9969C72.8159 21.1957 72.9029 20.2316 73.7481 19.8936C74.5934 19.5556 75.4759 20.3068 76.3958 20.3944C76.9054 20.3944 76.98 19.9562 76.6444 19.6182C76.2168 19.3083 75.73 19.0909 75.2149 18.9797C74.3476 18.648 73.4157 18.5237 72.4927 18.6166C70.3547 18.9171 70.0688 21.4585 70.5412 23.1862C71.1254 25.3271 73.3006 26.0658 75.2895 26.0282C77.5107 25.9 79.6571 25.1736 81.5046 23.9249C82.3691 23.3667 83.1993 22.7563 83.9906 22.097C84.1025 23.349 84.4132 25.7903 86.0043 26.0031C87.5954 26.216 88.5898 23.9499 89.5966 22.9859C89.5147 23.3881 89.5441 23.8053 89.6816 24.1918C89.819 24.5784 90.0593 24.9195 90.3761 25.1779C90.6929 25.4363 91.0741 25.602 91.4781 25.657C91.8821 25.712 92.2933 25.6542 92.6669 25.4898C94.4454 24.7045 96.0735 23.6113 97.4774 22.2598C97.6017 23.637 97.6265 26.2786 99.5408 26.3788C100.647 26.4413 99.5408 25.1268 99.8267 24.7762C99.9821 24.683 100.149 24.6114 100.324 24.5634C100.572 24.4632 100.746 24.313 100.933 24.4132C101.119 24.5133 101.467 25.1518 101.654 25.3772C101.894 25.7079 102.201 25.9838 102.554 26.1866C102.908 26.3895 103.3 26.5147 103.705 26.554C104.668 26.6307 105.635 26.4763 106.527 26.1033C108.657 25.2211 110.528 23.8029 111.959 21.9844C111.859 22.0595 112.182 22.9359 112.22 23.0485C112.42 23.6254 112.696 24.1727 113.04 24.6761C113.368 25.214 113.738 25.7247 114.146 26.2035C114.367 26.4173 114.628 26.5841 114.914 26.6938C115.201 26.8036 115.506 26.854 115.812 26.842C118.609 26.9421 121.393 24.7262 123.357 22.9359C123.68 26.8545 127.77 27.3553 130.815 26.4038C132.512 25.8579 134.109 25.0329 135.539 23.9624C136.148 23.5117 136.782 23.036 137.329 22.5478C137.875 22.0595 138.398 21.709 137.925 21.0579C137.751 20.9578 137.938 21.2207 137.838 21.0955ZM125.893 21.0204C127.061 19.9813 129.498 22.072 128.379 22.9233C128.029 23.0872 127.644 23.1625 127.259 23.1429C126.873 23.1232 126.498 23.0092 126.166 22.8107C125.984 22.7331 125.813 22.6321 125.657 22.5102C125.42 22.2849 125.458 22.2598 125.52 21.9218C125.557 21.5822 125.705 21.2648 125.942 21.0204H125.893ZM101.99 21.9468C101.704 22.9609 100.075 23.4617 99.2549 23.8748C98.9884 23.0618 98.9884 22.184 99.2549 21.3709C99.7521 20.0564 102.425 20.3819 101.99 21.9468ZM113.351 15.0861C113.226 13.6213 113.003 12.1565 112.941 10.6792C112.941 10.241 113.003 7.34903 114.109 8.42571C114.428 8.91446 114.608 9.48145 114.631 10.0658C114.72 10.7591 114.766 11.4574 114.768 12.1565C114.772 12.9515 114.726 13.746 114.631 14.5352C114.621 14.8994 114.567 15.261 114.469 15.6119C114.358 15.8623 114.469 15.7997 114.159 15.8623C113.848 15.9249 113.637 15.8623 113.4 15.8623L113.351 15.0861ZM113.525 16.8138H114.184C114.037 17.3254 113.859 17.8272 113.649 18.3162L113.525 16.8138Z" fill="#D3A562"/>
<path d="M22.7223 37.9092H22.051L22.1381 37.834V39.6869V39.5993L23.0579 39.7245V39.9373H21.0566V39.7245L21.8149 39.5993L21.7403 39.6869V35.0923L21.8149 35.1799L21.0566 35.0923V34.8794H22.1008H23.0082C23.3172 34.8683 23.6242 34.9327 23.9031 35.0672C24.127 35.1765 24.3133 35.351 24.4377 35.568C24.5561 35.8047 24.6158 36.0667 24.6117 36.3317C24.6156 36.6331 24.5429 36.9305 24.4004 37.1955C24.2463 37.4417 24.0206 37.6341 23.754 37.7464C23.4269 37.8792 23.074 37.9349 22.7223 37.9092ZM22.9585 35.1298H22.051L22.1256 35.0547V37.6963L22.0386 37.6337H22.772C23.1764 37.6548 23.5746 37.5256 23.8907 37.2706C24.0197 37.1471 24.1209 36.9971 24.1874 36.8308C24.2538 36.6645 24.2841 36.4858 24.2761 36.3067C24.2858 36.1478 24.262 35.9887 24.2063 35.8398C24.1506 35.6909 24.0642 35.5556 23.9529 35.4428C23.6754 35.2104 23.318 35.0979 22.9585 35.1298Z" fill="#322E29"/>
<path d="M25.5688 39.9374V39.7246L26.2525 39.6119L26.1904 39.6871V36.3569L26.2525 36.432L25.5688 36.3193V36.119H26.4638V36.8451C26.6496 36.6371 26.8629 36.456 27.0978 36.3068C27.3027 36.1787 27.5403 36.1134 27.7814 36.119C27.9458 36.1203 28.1091 36.1456 28.2662 36.1941V37.108H28.03L27.9555 36.3443V36.4445H27.8312H27.7068C27.4862 36.4467 27.2707 36.5118 27.0853 36.6323C26.8651 36.7716 26.668 36.9448 26.5011 37.1456V37.0204V39.7872L26.4265 39.7121L27.2469 39.8248V40.0376L25.5688 39.9374Z" fill="#322E29"/>
<path d="M30.6157 39.9874C30.3264 39.9934 30.0416 39.9151 29.7953 39.7621C29.5411 39.6116 29.3408 39.3836 29.2235 39.111C29.0814 38.7839 29.0135 38.4289 29.0246 38.0719C29.0175 37.7019 29.0896 37.3347 29.236 36.9952C29.3601 36.7101 29.5629 36.4667 29.8202 36.2941C30.0858 36.12 30.3984 36.0326 30.7151 36.0438C30.996 36.0282 31.2745 36.1027 31.5107 36.2566C31.7272 36.3937 31.8966 36.5949 31.9955 36.8325C32.1095 37.1057 32.1646 37.4001 32.1571 37.6963V37.809C32.1504 37.8631 32.1504 37.9177 32.1571 37.9718H29.2608V37.6963H31.8587H31.7966C31.8019 37.4546 31.7683 37.2137 31.6971 36.9827C31.6381 36.7788 31.5162 36.599 31.3491 36.4694C31.1612 36.3238 30.9268 36.2525 30.6903 36.2691C30.4382 36.266 30.191 36.3402 29.9818 36.4819C29.7871 36.6434 29.6336 36.8494 29.5343 37.0829C29.4293 37.3671 29.3787 37.6686 29.3851 37.9718C29.3753 38.2803 29.4304 38.5875 29.5467 38.8732C29.639 39.1074 29.7993 39.3081 30.0066 39.4491C30.2075 39.5874 30.4471 39.6576 30.6903 39.6494C30.9063 39.6466 31.1203 39.6085 31.3242 39.5367C31.5688 39.4507 31.7993 39.3283 32.0079 39.1737L32.1446 39.3865C31.9055 39.5628 31.6415 39.702 31.3615 39.7996C31.1247 39.9026 30.8728 39.9661 30.6157 39.9874Z" fill="#322E29"/>
<path d="M36.694 36.7949C36.9088 36.5601 37.1662 36.3689 37.4523 36.2315C37.6882 36.1135 37.9471 36.0493 38.2105 36.0437C38.344 36.0376 38.4774 36.0601 38.6017 36.1097C38.7259 36.1594 38.8383 36.235 38.9314 36.3316C39.039 36.4513 39.1211 36.5919 39.1724 36.7448C39.2237 36.8978 39.2432 37.0597 39.2298 37.2205V39.7245V39.6368L39.901 39.762V39.9748H38.2105V39.762L38.8693 39.6493L38.8072 39.7245V37.3457C38.829 37.0759 38.7491 36.8077 38.5834 36.5946C38.511 36.5188 38.4241 36.4587 38.328 36.4178C38.2318 36.3769 38.1284 36.3561 38.024 36.3567C37.7927 36.3651 37.5667 36.4295 37.3652 36.5445C37.0968 36.6762 36.8562 36.859 36.6567 37.0828V36.9827C36.6629 37.0284 36.6629 37.0747 36.6567 37.1204C36.6635 37.166 36.6635 37.2125 36.6567 37.2581V39.762L36.5821 39.6744L37.2534 39.7996V40.0124H35.6996V39.7996L36.3708 39.6869V39.762V37.3833C36.3926 37.1135 36.3128 36.8453 36.1471 36.6321C36.0747 36.5564 35.9878 36.4962 35.8916 36.4553C35.7955 36.4145 35.6921 36.3937 35.5877 36.3943C35.3543 36.405 35.1257 36.4647 34.9165 36.5695C34.6543 36.7001 34.4183 36.8784 34.2204 37.0953V36.9952V39.762V39.6869L34.8792 39.7996V40.0124H33.313V39.7996L33.9966 39.6744L33.9345 39.762V36.4318L33.9966 36.5069L33.313 36.3943V36.1939H34.208V36.9201C34.4213 36.6869 34.6792 36.4995 34.9662 36.3692C35.1985 36.2549 35.4535 36.195 35.712 36.1939C35.9299 36.1885 36.1436 36.2544 36.3211 36.3817C36.4822 36.4805 36.6117 36.6239 36.694 36.7949Z" fill="#322E29"/>
<path d="M41.6534 39.6745V39.6119L42.3246 39.7246V39.9374H40.6963V39.7246L41.3675 39.6119V39.6745V36.3693V36.432L40.6963 36.3193V36.119H41.6658L41.6534 39.6745ZM41.4172 35.1675C41.3799 35.1673 41.343 35.1595 41.3088 35.1444C41.2746 35.1293 41.2438 35.1073 41.2184 35.0798C41.167 35.0213 41.1402 34.945 41.1438 34.867C41.1393 34.8243 41.1437 34.7812 41.1565 34.7403C41.1693 34.6993 41.1904 34.6615 41.2184 34.6291C41.2759 34.575 41.351 34.5438 41.4297 34.5415C41.467 34.5417 41.5039 34.5495 41.5381 34.5646C41.5723 34.5797 41.6031 34.6016 41.6286 34.6291C41.6565 34.6615 41.6776 34.6993 41.6904 34.7403C41.7032 34.7812 41.7076 34.8243 41.7031 34.867C41.7067 34.945 41.6799 35.0213 41.6286 35.0798C41.6017 35.1089 41.5689 35.1318 41.5324 35.147C41.496 35.1621 41.4566 35.1691 41.4172 35.1675Z" fill="#322E29"/>
<path d="M44.7488 39.9874C44.6049 39.9938 44.4611 39.9704 44.3264 39.9187C44.1918 39.8671 44.069 39.7882 43.9657 39.687C43.8523 39.5683 43.7658 39.4262 43.7121 39.2706C43.6585 39.115 43.639 38.9495 43.655 38.7856V36.3568L43.7171 36.4319L43.0459 36.3192V36.1189H44.003V38.773C43.9909 38.9058 44.0056 39.0397 44.0462 39.1667C44.0868 39.2936 44.1524 39.411 44.2392 39.5117C44.3201 39.5935 44.4174 39.657 44.5245 39.698C44.6317 39.739 44.7463 39.7566 44.8607 39.7496C45.0903 39.7401 45.3152 39.6803 45.5195 39.5743C45.7864 39.4455 46.0268 39.2671 46.228 39.0485V39.1611V36.3943L46.2902 36.4819L45.6065 36.3693V36.1689H46.5761V39.7746H46.5015L47.1851 39.8622V40.0626H46.3026L46.2404 39.3364H46.3026C46.0878 39.5712 45.8304 39.7624 45.5443 39.8998C45.2877 39.9823 45.0172 40.0121 44.7488 39.9874Z" fill="#322E29"/>
<path d="M51.4612 36.7949C51.6778 36.5621 51.9347 36.3712 52.2194 36.2316C52.4558 36.1147 52.7145 36.0506 52.9777 36.0438C53.1131 36.0375 53.2484 36.0598 53.3747 36.1094C53.5011 36.159 53.6156 36.2347 53.7111 36.3317C53.8187 36.4513 53.9007 36.592 53.952 36.7449C54.0033 36.8978 54.0229 37.0598 54.0094 37.2206V39.7245L53.9473 39.6369L54.6185 39.7621V39.9749H53.0026V39.7621L53.6738 39.6494L53.6117 39.7245V37.3458C53.6335 37.076 53.5536 36.8078 53.3879 36.5946C53.3155 36.5189 53.2286 36.4587 53.1324 36.4179C53.0363 36.377 52.9329 36.3562 52.8286 36.3568C52.5972 36.3652 52.3712 36.4296 52.1698 36.5445C51.9013 36.6762 51.6607 36.859 51.4612 37.0829V36.9827C51.4674 37.0284 51.4674 37.0747 51.4612 37.1204C51.4612 37.1204 51.4612 37.2081 51.4612 37.2582V39.7621L51.3866 39.6744L52.0454 39.7996V40.0124H50.5041V39.7996L51.1753 39.687L51.1007 39.7621V37.3833C51.1203 37.1157 51.0455 36.8497 50.8894 36.6322C50.8152 36.5555 50.7262 36.4949 50.6279 36.454C50.5295 36.4131 50.424 36.3928 50.3176 36.3943C50.0882 36.4053 49.8637 36.465 49.6588 36.5696C49.3946 36.7028 49.1549 36.8806 48.9503 37.0954V36.9952V39.7621L48.8882 39.687L49.547 39.7996V40.0124H48.1548V39.7996L48.8384 39.6744L48.7763 39.7621V36.4319L48.8384 36.507L48.1548 36.3943V36.194H49.0498V36.9201C49.2607 36.6842 49.5192 36.4964 49.808 36.3693C50.0403 36.255 50.2953 36.1951 50.5538 36.194C50.7713 36.1912 50.9843 36.2568 51.1629 36.3818C51.2993 36.4881 51.4028 36.6314 51.4612 36.7949Z" fill="#322E29"/>
<path d="M58.2353 39.9373V39.7244L59.1054 39.5992L59.0184 39.6994V35.0546L59.1054 35.1298H57.6014L57.7008 35.0421L57.5641 35.9811H57.3403V34.8418H61.0694V35.9811H60.8332L60.7089 35.0546L60.8083 35.1298H59.3416L59.4286 35.0546V39.6994L59.3416 39.5992L60.2117 39.7244V39.9373H58.2353Z" fill="#322E29"/>
<path d="M61.8276 39.9374V39.7246L62.5113 39.6119V39.6871V36.3569V36.432L61.8276 36.3193V36.119H62.7226V36.8451C62.9083 36.6371 63.1217 36.456 63.3566 36.3068C63.5615 36.1787 63.7991 36.1134 64.0402 36.119C64.2045 36.1203 64.3679 36.1456 64.525 36.1941V37.108H64.3012L64.2142 36.3443V36.4445H64.0899H63.9656C63.745 36.4467 63.5295 36.5118 63.3441 36.6323C63.1261 36.7744 62.9293 36.9473 62.7599 37.1456V37.0204V39.7872L62.6853 39.7121L63.5057 39.8248V40.0376L61.8276 39.9374Z" fill="#322E29"/>
<path d="M67.9312 39.6994L67.8691 39.6118L68.5528 39.712V39.9123H67.6702V39.2112C67.4617 39.4269 67.2178 39.6048 66.9492 39.737C66.7227 39.8563 66.4715 39.9206 66.2159 39.9248C66.0882 39.9307 65.9607 39.9104 65.8411 39.8652C65.7214 39.82 65.6121 39.7508 65.5198 39.6619C65.4215 39.5547 65.3465 39.4282 65.2994 39.2902C65.2523 39.1523 65.2342 39.006 65.2463 38.8607C65.2327 38.6265 65.2937 38.394 65.4204 38.1971C65.5452 38.0465 65.7154 37.941 65.9051 37.8966C66.1327 37.8389 66.3665 37.8095 66.6012 37.809H67.6578H67.5956V37.0077C67.608 36.892 67.5931 36.775 67.552 36.6663C67.511 36.5575 67.445 36.46 67.3595 36.3818C67.1713 36.2473 66.9434 36.1811 66.7131 36.194C66.5603 36.1762 66.406 36.1762 66.2532 36.194L65.7187 36.3442L65.7932 36.2566V36.9452H65.5322V36.1314C65.7643 36.0506 66.0008 35.9837 66.2407 35.9311C66.4542 35.8934 66.6704 35.8725 66.8871 35.8685C67.1876 35.8481 67.4859 35.9321 67.7324 36.1063C67.8428 36.2034 67.9286 36.3256 67.9826 36.4628C68.0367 36.6 68.0574 36.7482 68.0431 36.8951L67.9312 39.6994ZM65.5944 38.8857C65.5835 38.9962 65.5956 39.1078 65.6298 39.2135C65.664 39.3191 65.7197 39.4163 65.7932 39.4991C65.859 39.5673 65.9385 39.6205 66.0264 39.6551C66.1144 39.6896 66.2087 39.7048 66.3029 39.6994C66.5292 39.6943 66.751 39.6342 66.9492 39.5242C67.1944 39.3987 67.4204 39.2384 67.6205 39.0484V39.1611V38.0719H67.6826H66.6758C66.3952 38.0497 66.1144 38.1106 65.8678 38.2472C65.7623 38.314 65.6772 38.4092 65.6224 38.522C65.5675 38.6347 65.5449 38.7607 65.5571 38.8857H65.5944Z" fill="#322E29"/>
<path d="M71.3119 36.1189H72.7538V36.3192L72.2069 36.4444L72.2939 36.3693L71.0509 40H70.6407L69.3977 36.3693L69.4847 36.4444L68.9502 36.3693V36.1689H70.4542V36.3693L69.7209 36.4819L70.8271 39.8873L71.9956 36.4819H71.2995L71.3119 36.1189Z" fill="#322E29"/>
<path d="M74.9914 39.9874C74.7021 39.9934 74.4173 39.9151 74.171 39.7621C73.9168 39.6116 73.7166 39.3836 73.5993 39.111C73.3263 38.4326 73.3263 37.6737 73.5993 36.9952C73.7196 36.7077 73.9232 36.4634 74.1835 36.2941C74.4485 36.1184 74.7615 36.0309 75.0785 36.0438C75.3593 36.0282 75.6378 36.1027 75.874 36.2566C76.0905 36.3937 76.2599 36.5949 76.3588 36.8325C76.4728 37.1057 76.5279 37.4001 76.5204 37.6963V37.809C76.5137 37.8631 76.5137 37.9177 76.5204 37.9718H73.6365V37.6963H76.2345C76.2337 37.455 76.2002 37.215 76.135 36.9827C76.076 36.7788 75.9541 36.599 75.787 36.4694C75.5991 36.3238 75.3647 36.2525 75.1282 36.2691C74.876 36.266 74.6289 36.3402 74.4197 36.4819C74.2212 36.6397 74.0669 36.8468 73.9721 37.0829C73.8627 37.3661 73.8079 37.6678 73.8106 37.9718C73.8043 38.2813 73.8636 38.5886 73.9846 38.8732C74.0735 39.1057 74.2294 39.3063 74.4321 39.4491C74.6393 39.584 74.8816 39.6537 75.1282 39.6494C75.3442 39.6466 75.5582 39.6085 75.7621 39.5367C76.0055 39.448 76.2356 39.3258 76.4458 39.1737L76.5825 39.3865C76.3434 39.5628 76.0794 39.702 75.7994 39.7996C75.5431 39.9095 75.2696 39.9731 74.9914 39.9874Z" fill="#322E29"/>
<path d="M78.5587 39.6745V39.6119L79.23 39.7246V39.9374H77.6514V39.7246L78.3102 39.6119V39.6745V34.6667V34.7293L77.6514 34.6166V34.4038H78.6085L78.5587 39.6745Z" fill="#322E29"/>
<path d="M82.7974 36.0687C82.7891 36.2479 82.8417 36.4245 82.9465 36.5695C83.0534 36.7033 83.1895 36.8104 83.3443 36.8825C83.5196 36.9705 83.7027 37.0418 83.8912 37.0954L84.4754 37.2831C84.6652 37.349 84.8484 37.4328 85.0224 37.5336C85.1836 37.6347 85.3197 37.7717 85.4202 37.9342C85.5273 38.1245 85.579 38.3415 85.5693 38.5601C85.5805 38.8481 85.4926 39.1311 85.3207 39.3614C85.1476 39.5768 84.92 39.7412 84.6619 39.8372C84.3792 39.9406 84.0801 39.9915 83.7794 39.9874C83.5412 39.9872 83.3038 39.962 83.0708 39.9123C82.8271 39.8638 82.5895 39.7882 82.3623 39.6869V38.5852H82.5861L82.6855 39.5367V39.4365C82.8674 39.5234 83.0595 39.5865 83.2573 39.6243C83.4402 39.6698 83.6283 39.6908 83.8167 39.6869C84.0533 39.6891 84.2887 39.651 84.5127 39.5742C84.7149 39.5009 84.8918 39.3705 85.0224 39.1986C85.1597 39.0297 85.2305 38.8158 85.2213 38.5977C85.2304 38.4145 85.1778 38.2337 85.0721 38.0844C84.9657 37.947 84.8297 37.8357 84.6743 37.7589C84.5024 37.673 84.3236 37.6018 84.1398 37.546L83.5432 37.3583C83.3527 37.2996 83.1693 37.2198 82.9963 37.1204C82.8422 37.0249 82.7107 36.8968 82.6109 36.7448C82.5048 36.5586 82.4531 36.3459 82.4618 36.1313C82.4509 35.8647 82.5249 35.6015 82.6731 35.3802C82.8304 35.184 83.0362 35.0329 83.2697 34.942C83.5395 34.8383 83.8263 34.7874 84.115 34.7918C84.3408 34.792 84.5659 34.8172 84.7862 34.8669C85.0214 34.9173 85.2506 34.9928 85.4698 35.0922V36.1564H85.2337L85.1591 35.2299L85.2337 35.3176C85.0692 35.2442 84.8987 35.1856 84.7241 35.1423C84.538 35.1243 84.3507 35.1243 84.1647 35.1423C83.9491 35.137 83.7343 35.1709 83.5307 35.2425C83.342 35.2963 83.1734 35.4052 83.046 35.5554C82.9033 35.69 82.8148 35.8727 82.7974 36.0687Z" fill="#322E29"/>
<path d="M88.5901 36.0438C88.8218 36.0229 89.0552 36.0574 89.2711 36.1444C89.4871 36.2314 89.6797 36.3685 89.8332 36.5445C90.1493 36.9396 90.3047 37.4407 90.2682 37.9467C90.2798 38.3118 90.2119 38.675 90.0693 39.0109C89.9399 39.3036 89.7281 39.5517 89.4603 39.7245C89.179 39.9063 88.8496 39.998 88.5156 39.9874C88.2952 39.9982 88.0752 39.9601 87.8711 39.8757C87.6671 39.7913 87.4839 39.6628 87.3347 39.4991C87.0263 39.1005 86.8757 38.6009 86.9121 38.0969C86.8976 37.7223 86.97 37.3494 87.1234 37.0077C87.2436 36.7168 87.447 36.4684 87.7076 36.2941C87.9722 36.1279 88.2783 36.0411 88.5901 36.0438ZM88.5901 36.3192C88.3982 36.309 88.2067 36.3471 88.0331 36.4302C87.8595 36.5132 87.7092 36.6386 87.5957 36.7949C87.3537 37.1658 87.2321 37.6033 87.2477 38.0469C87.2117 38.4908 87.3303 38.9335 87.5833 39.2988C87.6964 39.4355 87.8395 39.544 88.0013 39.6157C88.163 39.6874 88.339 39.7203 88.5156 39.712C88.7803 39.7229 89.0417 39.6483 89.2614 39.4991C89.4699 39.3433 89.6295 39.1303 89.7213 38.8857C89.8375 38.5956 89.8926 38.2844 89.8829 37.9717C89.9149 37.5282 89.7965 37.0868 89.5473 36.7198C89.4271 36.579 89.2753 36.4692 89.1045 36.3995C88.9337 36.3298 88.7488 36.3023 88.5653 36.3192H88.5901Z" fill="#322E29"/>
<path d="M92.2445 39.6745L92.1823 39.6119L92.8535 39.7246V39.9374H91.2749V39.7246L91.9461 39.6119V39.6745V34.6667V34.7293L91.2749 34.6166V34.4038H92.2445V39.6745Z" fill="#322E29"/>
<path d="M95.3895 39.9874C95.2437 39.9926 95.0984 39.9687 94.9619 39.9172C94.8254 39.8656 94.7003 39.7874 94.5939 39.687C94.3807 39.4377 94.2736 39.1139 94.2956 38.7856V36.3568L94.3578 36.4319L93.6865 36.3192V36.1189H94.6436V38.773C94.6315 38.9058 94.6462 39.0397 94.6868 39.1667C94.7274 39.2936 94.793 39.411 94.8798 39.5117C94.9588 39.5925 95.054 39.6555 95.159 39.6965C95.264 39.7375 95.3764 39.7556 95.4889 39.7496C95.7228 39.742 95.952 39.6821 96.1601 39.5743C96.4271 39.4455 96.6675 39.2671 96.8686 39.0485V39.1611V36.3943L96.9432 36.4819L96.2596 36.3693V36.1689H97.2167V39.7746L97.9003 39.8622V40.0626H97.0178L96.9557 39.3364H97.0178C96.7994 39.5725 96.5377 39.7638 96.2471 39.8998C95.9717 39.9947 95.6782 40.0247 95.3895 39.9874Z" fill="#322E29"/>
<path d="M99.9263 39.9874C99.7333 39.99 99.5466 39.9183 99.4043 39.7871C99.2676 39.6087 99.2012 39.3858 99.2178 39.1611V36.2941L99.2799 36.3567H98.5093V36.1439H99.2799L99.2178 36.2315V35.28H99.5658V36.2816L99.4912 36.2065H100.647V36.4694H99.5037L99.5783 36.4068V39.1611C99.564 39.3215 99.6082 39.4817 99.7026 39.6118C99.7482 39.6574 99.8026 39.6931 99.8625 39.7168C99.9223 39.7405 99.9863 39.7516 100.051 39.7495C100.149 39.7676 100.25 39.7676 100.349 39.7495C100.47 39.718 100.587 39.6717 100.697 39.6118L100.784 39.8372C100.514 39.9538 100.22 40.0052 99.9263 39.9874Z" fill="#322E29"/>
<path d="M102.599 39.6745L102.537 39.6119L103.208 39.7246V39.9374H101.604V39.7246L102.276 39.6119V39.6745V36.3693V36.432L101.604 36.3193V36.119H102.574L102.599 39.6745ZM102.363 35.1675C102.325 35.1673 102.288 35.1595 102.254 35.1444C102.22 35.1293 102.189 35.1073 102.164 35.0798C102.112 35.0213 102.086 34.945 102.089 34.867C102.085 34.8243 102.089 34.7812 102.102 34.7403C102.115 34.6993 102.136 34.6615 102.164 34.6291C102.221 34.575 102.296 34.5438 102.375 34.5415C102.412 34.5417 102.449 34.5495 102.484 34.5646C102.518 34.5797 102.549 34.6016 102.574 34.6291C102.602 34.6615 102.623 34.6993 102.636 34.7403C102.649 34.7812 102.653 34.8243 102.649 34.867C102.652 34.945 102.625 35.0213 102.574 35.0798C102.547 35.1089 102.514 35.1318 102.478 35.147C102.441 35.1621 102.402 35.1691 102.363 35.1675Z" fill="#322E29"/>
<path d="M105.98 36.0438C106.211 36.0229 106.445 36.0574 106.661 36.1444C106.877 36.2314 107.069 36.3685 107.223 36.5445C107.543 36.9377 107.703 37.439 107.67 37.9467C107.678 38.3127 107.606 38.676 107.459 39.0109C107.329 39.3036 107.118 39.5517 106.85 39.7245C106.569 39.9063 106.239 39.998 105.905 39.9874C105.687 39.9981 105.469 39.9598 105.267 39.8754C105.064 39.791 104.884 39.6625 104.737 39.4991C104.424 39.1023 104.269 38.6025 104.302 38.0969C104.294 37.7228 104.366 37.3513 104.513 37.0077C104.634 36.7135 104.842 36.4641 105.11 36.2941C105.37 36.1276 105.672 36.0406 105.98 36.0438ZM105.98 36.3192C105.79 36.3088 105.6 36.3469 105.428 36.4301C105.256 36.5133 105.108 36.6387 104.998 36.7949C104.747 37.1621 104.62 37.6013 104.637 38.0468C104.601 38.4908 104.72 38.9335 104.973 39.2988C105.086 39.4355 105.229 39.544 105.391 39.6157C105.553 39.6874 105.729 39.7203 105.905 39.712C106.17 39.7229 106.431 39.6483 106.651 39.4991C106.864 39.3445 107.028 39.1316 107.123 38.8857C107.229 38.593 107.28 38.2831 107.272 37.9717C107.304 37.5282 107.186 37.0868 106.937 36.7198C106.817 36.579 106.665 36.4692 106.494 36.3995C106.323 36.3298 106.138 36.3023 105.955 36.3192H105.98Z" fill="#322E29"/>
<path d="M108.764 39.9375V39.7247L109.448 39.5995L109.386 39.6872V36.357L109.448 36.4321L108.764 36.3194V36.1191H109.647V36.8452C109.865 36.6117 110.127 36.4244 110.417 36.2943C110.654 36.1786 110.913 36.1187 111.176 36.1191C111.464 36.1072 111.746 36.2107 111.959 36.407C112.071 36.5234 112.156 36.6637 112.208 36.8175C112.259 36.9713 112.276 37.1347 112.257 37.2959V39.7998L112.195 39.7122L112.866 39.8374V40.0502H111.312V39.8374L111.971 39.7247V39.7998V37.4211C111.983 37.2864 111.968 37.1507 111.927 37.0218C111.887 36.8929 111.821 36.7733 111.735 36.67C111.654 36.5916 111.559 36.5302 111.454 36.4893C111.35 36.4485 111.238 36.429 111.126 36.4321C110.892 36.4413 110.663 36.501 110.455 36.6073C110.19 36.7405 109.951 36.9184 109.746 37.1332V37.033V39.7998L109.684 39.7247L110.343 39.8374V40.0502L108.764 39.9375Z" fill="#322E29"/>
<path d="M114.295 37.0079C114.293 37.0842 114.306 37.1602 114.334 37.2312C114.362 37.3022 114.404 37.3668 114.457 37.421C114.575 37.5292 114.715 37.6103 114.867 37.6589L115.402 37.8342C115.584 37.8836 115.763 37.9463 115.936 38.022C116.09 38.0897 116.226 38.1925 116.334 38.3224C116.45 38.4768 116.507 38.6677 116.496 38.8608C116.5 39.0859 116.43 39.3061 116.297 39.4868C116.148 39.6613 115.955 39.7913 115.737 39.8624C115.494 39.9504 115.237 39.9928 114.979 39.9876C114.801 40.0004 114.623 40.0004 114.445 39.9876L113.91 39.8624L113.972 38.9735H114.196L114.258 39.7247V39.662L114.644 39.7371H115.054C115.248 39.7415 115.441 39.7119 115.626 39.6495C115.788 39.6032 115.934 39.5121 116.048 39.3866C116.15 39.2546 116.203 39.0906 116.197 38.9234C116.201 38.846 116.19 38.7686 116.165 38.6956C116.139 38.6225 116.1 38.5553 116.048 38.4977C115.933 38.3833 115.792 38.2976 115.638 38.2473L115.103 38.0721C114.924 38.0246 114.75 37.9618 114.581 37.8843C114.417 37.8288 114.274 37.7239 114.171 37.5838C114.064 37.4306 114.011 37.2452 114.022 37.058C114.01 36.8552 114.072 36.655 114.196 36.4946C114.325 36.3407 114.492 36.2241 114.681 36.1566C114.894 36.091 115.116 36.0572 115.34 36.0564H115.849C116.04 36.0932 116.228 36.1477 116.409 36.2192V36.9453H116.172L116.073 36.3193L116.135 36.4069C115.886 36.3246 115.626 36.2824 115.365 36.2818C115.118 36.27 114.873 36.3263 114.656 36.4445C114.548 36.4931 114.457 36.5722 114.393 36.6722C114.329 36.7723 114.295 36.8889 114.295 37.0079Z" fill="#322E29"/>
</g>
<defs>
<clipPath id="clip0_6427_54">
<rect width="138" height="40" fill="white"/>
</clipPath>
</defs>
</svg>
